<svg width="20" height="10" viewBox="0 0 20 10" fill="none" xmlns="http://www.w3.org/2000/svg">
<path d="M18.9844 3.78906H17.8997V2.47656C17.8993 2.15552 17.7716 1.84773 17.5446 1.62071C17.3176 1.3937 17.0098 1.266 16.6887 1.26562H16.0097C15.9665 0.97915 15.8222 0.717615 15.6028 0.528426C15.3834 0.339237 15.1035 0.234917 14.8137 0.234375H13.8762C13.8403 0.234355 13.8048 0.241413 13.7716 0.255147C13.7384 0.268882 13.7082 0.289022 13.6829 0.314417C13.6575 0.339812 13.6373 0.369964 13.6236 0.403148C13.6098 0.436332 13.6028 0.471898 13.6028 0.507813V3.78906H6.39719V0.507813C6.39721 0.471898 6.39015 0.436332 6.37641 0.403148C6.36268 0.369964 6.34254 0.339812 6.31715 0.314417C6.29175 0.289022 6.2616 0.268882 6.22841 0.255147C6.19523 0.241413 6.15966 0.234355 6.12375 0.234375H5.18625C4.89654 0.234917 4.61662 0.339237 4.39722 0.528426C4.17782 0.717615 4.03346 0.97915 3.99031 1.26562H3.31125C2.9902 1.266 2.68241 1.3937 2.4554 1.62071C2.22838 1.84773 2.10068 2.15552 2.10031 2.47656V3.78906H1.01563C0.979711 3.78904 0.944145 3.7961 0.910961 3.80983C0.877777 3.82357 0.847625 3.84371 0.82223 3.8691C0.796835 3.8945 0.776694 3.92465 0.76296 3.95784C0.749226 3.99102 0.742167 4.02659 0.742188 4.0625V5.9375C0.742167 5.97341 0.749226 6.00898 0.76296 6.04216C0.776694 6.07535 0.796835 6.1055 0.82223 6.1309C0.847625 6.15629 0.877777 6.17643 0.910961 6.19017C0.944145 6.2039 0.979711 6.21096 1.01563 6.21094H2.10031V7.52344C2.10068 7.84448 2.22838 8.15227 2.4554 8.37929C2.68241 8.6063 2.9902 8.734 3.31125 8.73438H3.99031C4.03346 9.02085 4.17782 9.28238 4.39722 9.47157C4.61662 9.66076 4.89654 9.76508 5.18625 9.76562H6.12375C6.15966 9.76565 6.19523 9.75859 6.22841 9.74485C6.2616 9.73112 6.29175 9.71098 6.31715 9.68558C6.34254 9.66019 6.36268 9.63004 6.37641 9.59685C6.39015 9.56367 6.39721 9.5281 6.39719 9.49219V6.21094H13.6028V9.49219C13.6028 9.5281 13.6098 9.56367 13.6236 9.59685C13.6373 9.63004 13.6575 9.66019 13.6829 9.68558C13.7082 9.71098 13.7384 9.73112 13.7716 9.74485C13.8048 9.75859 13.8403 9.76565 13.8762 9.76562H14.8137C15.1035 9.76508 15.3834 9.66076 15.6028 9.47157C15.8222 9.28238 15.9665 9.02085 16.0097 8.73438H16.6887C17.0098 8.734 17.3176 8.6063 17.5446 8.37929C17.7716 8.15227 17.8993 7.84448 17.8997 7.52344V6.21094H18.9844C19.0203 6.21096 19.0559 6.2039 19.089 6.19017C19.1222 6.17643 19.1524 6.15629 19.1778 6.1309C19.2032 6.1055 19.2233 6.07535 19.237 6.04216C19.2508 6.00898 19.2578 5.97341 19.2578 5.9375V4.0625C19.2578 4.02659 19.2508 3.99102 19.237 3.95784C19.2233 3.92465 19.2032 3.8945 19.1778 3.8691C19.1524 3.84371 19.1222 3.82357 19.089 3.80983C19.0559 3.7961 19.0203 3.78904 18.9844 3.78906ZM1.28906 5.66406V4.33594H2.10031V5.66406H1.28906ZM2.64719 7.52344V2.47656C2.64739 2.30051 2.71742 2.13172 2.84192 2.00723C2.96641 1.88274 3.13519 1.81271 3.31125 1.8125H3.97531V8.1875H3.31125C3.13522 8.18729 2.96646 8.11729 2.84197 7.99283C2.71748 7.86837 2.64744 7.69962 2.64719 7.52359V7.52344ZM5.18625 9.21875C5.01019 9.21854 4.84141 9.14851 4.71692 9.02402C4.59242 8.89953 4.52239 8.73074 4.52219 8.55469V1.44531C4.52239 1.26926 4.59242 1.10047 4.71692 0.975978C4.84141 0.851487 5.01019 0.781457 5.18625 0.78125H5.85031V4.05953V4.0625V4.06547V5.93453V5.9375V5.94047V9.21875H5.18625ZM6.39719 5.66406V4.33594H13.6028V5.66406H6.39719ZM15.4778 8.55469C15.4776 8.73074 15.4076 8.89953 15.2831 9.02402C15.1586 9.14851 14.9898 9.21854 14.8137 9.21875H14.1497V5.94047V5.9375V5.93453V4.06547V4.0625V4.05953V0.78125H14.8137C14.9898 0.781457 15.1586 0.851487 15.2831 0.975978C15.4076 1.10047 15.4776 1.26926 15.4778 1.44531V8.55469ZM17.3528 7.52344C17.3526 7.69949 17.2826 7.86828 17.1581 7.99277C17.0336 8.11726 16.8648 8.18729 16.6887 8.1875H16.0247V1.8125H16.6887C16.8648 1.81271 17.0336 1.88274 17.1581 2.00723C17.2826 2.13172 17.3526 2.30051 17.3528 2.47656V7.52344ZM18.7109 5.66406H17.8997V4.33594H18.7109V5.66406Z" fill="#7B6F72"/>
</svg>
